<svg xmlns="http://www.w3.org/2000/svg" fill="#000000" viewBox="0 0 24 24">
  <path d="M12 .297C5.373.297 0 5.67 0 12.297a12 12 0 0 0 8.207 11.385c.6.111.793-.261.793-.579v-2.171c-3.338.726-4.042-1.416-4.042-1.416-.546-1.386-1.334-1.757-1.334-1.757-1.09-.746.083-.73.083-.73 1.205.084 1.84 1.238 1.84 1.238 1.07 1.835 2.809 1.306 3.493.999.107-.775.418-1.306.762-1.606-2.665-.304-5.466-1.334-5.466-5.933 0-1.311.469-2.381 1.236-3.221-.124-.303-.536-1.527.118-3.181 0 0 1.008-.322 3.3 1.23a11.478 11.478 0 0 1 3.004-.404 11.44 11.44 0 0 1 3.003.404c2.291-1.553 3.297-1.23 3.297-1.23.655 1.654.243 2.878.119 3.181.77.84 1.236 1.91 1.236 3.221 0 4.61-2.805 5.625-5.476 5.922.43.372.823 1.102.823 2.222v3.293c0 .321.192.694.801.577A12.005 12.005 0 0 0 24 12.297C24 5.67 18.627.297 12 .297z"/>
</svg>
