<svg xmlns="http://www.w3.org/2000/svg" fill="#000000" viewBox="0 0 24 24">
  <path d="M23.954 4.569a10.004 10.004 0 0 1-2.825.775 4.932 4.932 0 0 0 2.163-2.723 9.864 9.864 0 0 1-3.127 1.184A4.917 4.917 0 0 0 16.616 3a4.92 4.92 0 0 0-4.917 4.918c0 .39.045.765.127 1.124C7.688 8.862 4.064 6.894 1.64 3.905a4.902 4.902 0 0 0-.665 2.475 4.92 4.92 0 0 0 2.188 4.096 4.903 4.903 0 0 1-2.228-.616v.06a4.927 4.927 0 0 0 3.946 4.827 4.902 4.902 0 0 1-2.224.084 4.93 4.93 0 0 0 4.6 3.417A9.869 9.869 0 0 1 0 21.542a13.94 13.94 0 0 0 7.548 2.213c9.056 0 14.009-7.514 14.009-14.009 0-.213-.005-.425-.014-.636a10.03 10.03 0 0 0 2.411-2.541z"/>
</svg>
